Patient4_TMGait_0pt3_02_left_21_GRF.mot
version=1
nRows=71
nColumns=19
inDegrees=no
endheader
time	F1x	F1y	F1z	M1x	M1y	M1z	F2x	F2y	F2z	M2x	M2y	M2z	EC1x	EC1y	EC1z	EC2x	EC2y	EC2z
41.09	4.2088	4.2892	0.4324	-1.0873	1.3424	5.366	-13.4418	776.0996	-43.6357	306.4899	53.4875	790.4129	-0.0592	0.0182	-0.0073	-0.0462	0.0165	0.9585
41.1096	2.7248	3.0068	0.25345	-0.7555	0.89879	3.7674	-15.1358	787.3663	-44.0826	310.4555	53.9892	800.8604	-0.0592	0.0182	-0.0073	-0.0462	0.0165	0.9585
41.1293	1.4682	1.9377	0.11448	-0.48122	0.49877	2.422	-16.8469	801.5163	-44.1396	315.6694	54.0982	813.5586	-0.0592	0.0182	-0.0073	-0.0462	0.0165	0.9585
41.1489	0.51127	1.1406	0.014938	-0.27741	0.17725	1.4109	-18.437	817.951	-43.6836	321.9409	53.6517	827.8691	-0.0592	0.0182	-0.0073	-0.0462	0.0165	0.9585
41.1686	-0.14971	0.60417	-0.048883	-0.14141	-0.058586	0.72689	-19.7866	835.4689	-42.7133	328.7843	52.5947	842.6298	-0.0592	0.0182	-0.0073	-0.0462	0.0165	0.9585
41.1882	-0.56131	0.28298	-0.080665	-0.061557	-0.21985	0.31106	-20.8144	852.2535	-41.3506	335.42	51.003	856.1454	-0.0592	0.0182	-0.0073	-0.0462	0.0165	0.9585
41.2079	-0.7891	0.11102	-0.084594	-0.020613	-0.32702	0.082871	-21.4896	866.053	-39.794	340.87	49.0491	866.3513	-0.0592	0.0182	-0.0073	-0.0462	0.0165	0.9585
41.2275	-0.89678	0.008473	-0.063	0.002891	-0.40282	-0.046615	-21.7785	874.5772	-38.2565	344.1455	46.9258	871.1537	-0.0592	0.0182	-0.0073	-0.0462	0.0165	0.9585
41.2471	-0.93727	-0.10788	-0.020206	0.033798	-0.46527	-0.1724	-21.603	876.0406	-36.9007	344.4858	44.7717	868.9222	-0.0592	0.0182	-0.0073	-0.0462	0.0165	0.9585
41.2668	-0.9521	-0.31511	0.035514	0.097757	-0.52366	-0.38536	-20.874	869.6038	-35.7987	341.5465	42.6408	858.9106	-0.0592	0.0182	-0.0073	-0.0462	0.0165	0.9585
41.2864	-0.96654	-0.68141	0.096534	0.21809	-0.58204	-0.7646	-19.5294	855.5616	-34.9415	335.4744	40.5259	841.4468	-0.0592	0.0182	-0.0073	-0.0462	0.0165	0.9585
41.3061	-0.98868	-1.2621	0.15419	0.41411	-0.63748	-1.3738	-17.5483	835.2716	-34.2613	326.868	38.3845	817.8666	-0.0592	0.0182	-0.0073	-0.0462	0.0165	0.9585
41.3257	-1.0073	-2.083	0.198	0.6945	-0.67812	-2.2401	-14.9519	810.8742	-33.6545	316.6496	36.1552	790.242	-0.0592	0.0182	-0.0073	-0.0462	0.0165	0.9585
41.3454	-0.99412	-3.1156	0.21654	1.0479	-0.68282	-3.3347	-11.8025	784.8911	-33.0215	305.8872	33.7913	760.9927	-0.0592	0.0182	-0.0073	-0.0462	0.0165	0.9585
41.365	-0.90162	-4.2449	0.19407	1.4333	-0.61575	-4.5391	-8.1752	759.7889	-32.3022	295.607	31.279	732.4688	-0.0592	0.0182	-0.0073	-0.0462	0.0165	0.9585
41.3846	-0.66721	-5.2336	0.11002	1.7679	-0.43101	-5.6053	-4.1571	737.6285	-31.4902	286.6487	28.6503	706.6207	-0.0592	0.0182	-0.0073	-0.0462	0.0165	0.9585
41.4043	-0.21924	-5.684	-0.058235	1.9131	-0.078266	-6.1171	0.14582	719.8613	-30.626	279.5885	25.9756	684.8122	-0.0592	0.0182	-0.0073	-0.0462	0.0165	0.9585
41.4239	0.51594	-5.0053	-0.3353	1.663	0.49341	-5.4527	4.6231	707.2542	-29.7747	274.7164	23.3419	667.7656	-0.0592	0.0182	-0.0073	-0.0462	0.0165	0.9585
41.4436	1.5916	-2.4016	-0.73916	0.74139	1.3187	-2.7648	9.1792	699.8738	-29.0052	272.0349	20.8329	655.5574	-0.0592	0.0182	-0.0073	-0.0462	0.0165	0.9585
41.4632	3.0134	3.0991	-1.2684	-1.1883	2.3956	2.991	13.7339	697.135	-28.3725	271.2799	18.5108	647.6777	-0.0592	0.0182	-0.0073	-0.0462	0.0165	0.9585
41.4829	4.7044	12.5451	-1.8873	-4.4873	3.6587	12.951	18.189	697.8712	-27.9107	271.9493	16.4222	643.1176	-0.0592	0.0182	-0.0073	-0.0462	0.0165	0.9585
41.5025	6.4501	26.8493	-2.5104	-9.4666	4.9412	28.1235	22.3718	700.3745	-27.629	273.322	14.6176	640.4237	-0.0592	0.0182	-0.0073	-0.0462	0.0165	0.9585
41.5221	7.8335	46.4384	-2.9778	-16.2624	5.9209	49.0079	26.0222	702.4827	-27.5192	274.4998	13.1674	637.77	-0.0592	0.0182	-0.0073	-0.0462	0.0165	0.9585
41.5418	8.229	70.8128	-3.0414	-24.6844	6.1074	75.1307	28.8363	701.9126	-27.5477	274.5436	12.1426	633.2311	-0.0592	0.0182	-0.0073	-0.0462	0.0165	0.9585
41.5614	7.2726	98.5308	-2.4238	-34.2085	5.0659	105.012	30.5628	696.8069	-27.6553	272.6915	11.5755	625.2446	-0.0592	0.0182	-0.0073	-0.0462	0.0165	0.9585
41.5811	5.2377	127.4392	-0.91294	-44.0677	2.6492	136.3616	31.1087	686.1914	-27.7825	268.5439	11.4473	612.9816	-0.0592	0.0182	-0.0073	-0.0462	0.0165	0.9585
41.6007	2.6701	154.7893	1.4218	-53.3194	-0.88041	166.1878	30.5847	670.1388	-27.8691	262.132	11.6667	596.466	-0.0592	0.0182	-0.0073	-0.0462	0.0165	0.9585
41.6204	0.093681	178.3505	4.0389	-61.2357	-4.7336	192.0417	29.2956	649.7276	-27.872	253.8951	12.0826	576.5432	-0.0592	0.0182	-0.0073	-0.0462	0.0165	0.9585
41.64	-2.2839	197.6927	6.3702	-67.7102	-8.2049	213.4443	27.6678	626.7132	-27.8092	244.5429	12.5455	554.6093	-0.0592	0.0182	-0.0073	-0.0462	0.0165	0.9585
41.6596	-4.5414	214.0249	8.1301	-73.178	-11.0069	231.7352	26.1186	602.9237	-27.7273	234.8159	12.9348	532.1291	-0.0592	0.0182	-0.0073	-0.0462	0.0165	0.9585
41.6793	-6.8351	229.0799	9.2904	-78.2326	-13.1665	248.8317	24.9184	579.7034	-27.6264	225.2697	13.1517	510.1822	-0.0592	0.0182	-0.0073	-0.0462	0.0165	0.9585
41.6989	-9.2399	244.1978	10.0084	-83.318	-14.8815	266.1864	24.1315	557.6531	-27.4694	216.172	13.1499	489.2467	-0.0592	0.0182	-0.0073	-0.0462	0.0165	0.9585
41.7186	-11.7119	259.9619	10.5229	-88.6143	-16.392	284.3771	23.6356	536.6492	-27.2411	207.5064	12.9737	469.212	-0.0592	0.0182	-0.0073	-0.0462	0.0165	0.9585
41.7382	-14.1383	276.4059	11.0532	-94.1181	-17.8912	303.337	23.222	516.0973	-26.9552	199.0718	12.7271	449.5889	-0.0592	0.0182	-0.0073	-0.0462	0.0165	0.9585
41.7579	-16.3725	293.4603	11.7333	-99.8012	-19.4684	322.8479	22.7173	495.3213	-26.6074	190.6345	12.4871	429.8331	-0.0592	0.0182	-0.0073	-0.0462	0.0165	0.9585
41.7775	-18.2563	311.2242	12.6014	-105.6982	-21.1114	342.8699	22.0511	473.8896	-26.1461	182.0547	12.2548	409.616	-0.0592	0.0182	-0.0073	-0.0462	0.0165	0.9585
41.7971	-19.6919	329.943	13.6402	-111.8917	-22.7712	363.564	21.2601	451.7408	-25.496	173.3268	11.9665	388.9244	-0.0592	0.0182	-0.0073	-0.0462	0.0165	0.9585
41.8168	-20.6552	349.7891	14.8309	-118.432	-24.4188	385.0658	20.4556	429.1067	-24.6088	164.5433	11.5437	367.9853	-0.0592	0.0182	-0.0073	-0.0462	0.0165	0.9585
41.8364	-21.188	370.6612	16.1547	-125.2689	-26.0413	407.2696	19.7606	406.3485	-23.4949	155.8314	10.9462	347.1224	-0.0592	0.0182	-0.0073	-0.0462	0.0165	0.9585
41.8561	-21.3981	392.1611	17.5911	-132.2488	-27.6451	429.7957	19.2539	383.7969	-22.21	147.2939	10.1813	326.6238	-0.0592	0.0182	-0.0073	-0.0462	0.0165	0.9585
41.8757	-21.4209	413.7739	19.1315	-139.1826	-29.2583	452.1559	18.9494	361.5844	-20.8226	138.9503	9.2887	306.6032	-0.0592	0.0182	-0.0073	-0.0462	0.0165	0.9585
41.8954	-21.3585	435.1286	20.7688	-145.9379	-30.9004	473.9995	18.7877	339.5502	-19.3888	130.7034	8.3275	286.9298	-0.0592	0.0182	-0.0073	-0.0462	0.0165	0.9585
41.915	-21.2577	456.1535	22.4838	-152.4938	-32.5611	495.2543	18.6429	317.2318	-17.9421	122.3436	7.3602	267.2218	-0.0592	0.0182	-0.0073	-0.0462	0.0165	0.9585
41.9346	-21.1122	477.0643	24.2762	-158.9378	-34.2316	516.1106	18.3559	293.9812	-16.5001	113.5965	6.4477	246.9402	-0.0592	0.0182	-0.0073	-0.0462	0.0165	0.9585
41.9543	-20.8889	498.306	26.1911	-165.4383	-35.9413	536.9705	17.7707	269.2029	-15.0812	104.2158	5.6548	225.5876	-0.0592	0.0182	-0.0073	-0.0462	0.0165	0.9585
41.9739	-20.5578	520.4522	28.314	-172.2074	-37.7641	558.3657	16.7664	242.6206	-13.7154	94.085	5.0446	202.9261	-0.0592	0.0182	-0.0073	-0.0462	0.0165	0.9585
41.9936	-20.0877	544.0813	30.7203	-179.4627	-39.7685	580.8394	15.2916	214.42	-12.4341	83.2734	4.6587	179.0885	-0.0592	0.0182	-0.0073	-0.0462	0.0165	0.9585
42.0132	-19.4503	569.6026	33.4248	-187.3693	-41.9641	604.7784	13.3733	185.2451	-11.2525	72.0344	4.4978	154.5803	-0.0592	0.0182	-0.0073	-0.0462	0.0165	0.9585
42.0329	-18.6386	597.0654	36.3661	-195.9737	-44.2854	630.2313	11.1103	156.057	-10.1609	60.7484	4.5162	130.169	-0.0592	0.0182	-0.0073	-0.0462	0.0165	0.9585
42.0525	-17.6717	626.0669	39.4258	-205.1654	-46.6162	656.8111	8.6509	127.9095	-9.1309	49.834	4.6349	106.6961	-0.0592	0.0182	-0.0073	-0.0462	0.0165	0.9585
42.0721	-16.6006	655.8441	42.466	-214.6995	-48.8342	683.7936	6.1563	101.7506	-8.1278	39.6689	4.7638	84.9186	-0.0592	0.0182	-0.0073	-0.0462	0.0165	0.9585
42.0918	-15.5258	685.4761	45.3777	-224.2587	-50.8671	710.3316	3.7773	78.2831	-7.1154	30.5356	4.8148	65.4009	-0.0592	0.0182	-0.0073	-0.0462	0.0165	0.9585
42.1114	-14.592	714.1319	48.1158	-233.5365	-52.7227	735.6813	1.6549	57.9143	-6.0637	22.6007	4.7115	48.469	-0.0592	0.0182	-0.0073	-0.0462	0.0165	0.9585
42.1311	-13.9413	741.2635	50.6882	-242.3138	-54.4657	759.3787	-0.083036	40.8038	-4.9619	15.9321	4.4019	34.2551	-0.0592	0.0182	-0.0073	-0.0462	0.0165	0.9585
42.1507	-13.6426	766.6225	53.1228	-250.4795	-56.1609	781.2214	-1.3247	26.9441	-3.8294	10.53	3.8703	22.7588	-0.0592	0.0182	-0.0073	-0.0462	0.0165	0.9585
42.1704	-13.636	790.1234	55.4255	-257.996	-57.8118	801.0948	-1.9906	16.2186	-2.7207	6.3502	3.1421	13.8819	-0.0592	0.0182	-0.0073	-0.0462	0.0165	0.9585
42.19	-13.7256	811.6311	57.5472	-264.8338	-59.3172	818.7632	-2.106	8.4355	-1.7199	3.3184	2.3051	7.4557	-0.0592	0.0182	-0.0073	-0.0462	0.0165	0.9585
42.2096	-13.6405	830.7375	59.3866	-270.8926	-60.4917	833.6885	-1.8724	3.2976	-0.90947	1.3185	1.5087	3.2248	-0.0592	0.0182	-0.0073	-0.0462	0.0165	0.9585
42.2293	-13.0879	846.6222	60.8102	-275.9398	-61.1083	844.9362	-1.4891	0.31405	-0.31855	0.15943	0.85352	0.77785	-0.0592	0.0182	-0.0073	-0.0462	0.0165	0.9585
42.2489	-11.8107	858.0548	61.6825	-279.597	-60.952	851.2312	-1.0843	-1.0898	0.067998	-0.38282	0.37489	-0.36607	-0.0592	0.0182	-0.0073	-0.0462	0.0165	0.9585
42.2686	-9.6681	863.4963	61.9151	-281.3638	-59.8956	851.1139	-0.73246	-1.4563	0.28685	-0.52059	0.067328	-0.65708	-0.0592	0.0182	-0.0073	-0.0462	0.0165	0.9585
42.2882	-6.6658	861.4771	61.4879	-280.7426	-57.9283	843.311	-0.46736	-1.2467	0.38075	-0.43496	-0.097506	-0.48321	-0.0592	0.0182	-0.0073	-0.0462	0.0165	0.9585
42.3079	-2.9289	851.193	60.442	-277.4441	-55.1402	827.272	-0.29669	-0.82618	0.39268	-0.27012	-0.15765	-0.15588	-0.0592	0.0182	-0.0073	-0.0462	0.0165	0.9585
42.3275	1.3511	832.9878	58.8711	-271.5549	-51.6953	803.5696	-0.21483	-0.46881	0.36192	-0.13503	-0.15219	0.08428	-0.0592	0.0182	-0.0073	-0.0462	0.0165	0.9585
42.3471	5.9956	808.5887	56.9026	-263.6207	-47.786	774.0564	-0.20766	-0.37351	0.32003	-0.10937	-0.1162	0.053122	-0.0592	0.0182	-0.0073	-0.0462	0.0165	0.9585
42.3668	10.8656	780.9513	54.6964	-254.5957	-43.6188	741.677	-0.24917	-0.67358	0.28935	-0.24609	-0.080042	-0.37833	-0.0592	0.0182	-0.0073	-0.0462	0.0165	0.9585
42.3864	15.833	753.7114	52.4487	-245.6601	-39.4215	709.9462	-0.30366	-1.4355	0.28379	-0.57166	-0.069447	-1.2789	-0.0592	0.0182	-0.0073	-0.0462	0.0165	0.9585
42.4061	20.7636	730.4697	50.3759	-237.9832	-35.434	682.2853	-0.32863	-2.6428	0.30905	-1.0803	-0.10533	-2.6365	-0.0592	0.0182	-0.0073	-0.0462	0.0165	0.9585
42.4257	25.517	714.0729	48.6844	-232.4872	-31.8847	661.3657	-0.27411	-4.1779	0.36308	-1.7238	-0.20538	-4.3318	-0.0592	0.0182	-0.0073	-0.0462	0.0165	0.9585
42.4454	29.9473	706.029	47.5371	-229.6584	-28.9652	648.5823	-0.080597	-5.7786	0.43741	-2.3939	-0.38338	-6.0924	-0.0592	0.0182	-0.0073	-0.0462	0.0165	0.9585
42.465	33.932	706.2365	47.0281	-229.463	-26.8016	643.8176	0.31947	-6.9863	0.51564	-2.9	-0.64632	-7.4368	-0.0592	0.0182	-0.0073	-0.0462	0.0165	0.9585
